<svg width="39" height="39" viewBox="0 0 39 39" fill="none" xmlns="http://www.w3.org/2000/svg">
<path d="M35.75 11.375H32.5V3.25H29.25V7.0525L19.5 11.2287L9.75 7.0525V3.25H6.5V11.375H3.25V14.625H6.58125C6.9875 18.2812 10.0588 21.125 13.8125 21.125C16.12 21.125 18.1675 20.0363 19.5 18.3625C20.8487 20.0363 22.88 21.125 25.1875 21.125C28.9412 21.125 32.0125 18.2812 32.4188 14.625H35.75V11.375Z" fill="white"/>
<path d="M13.8125 17.875C12.7351 17.875 11.7017 17.447 10.9399 16.6851C10.178 15.9233 9.75 14.8899 9.75 13.8125V10.5625L17.875 14.0562C17.7125 16.185 15.9738 17.875 13.8125 17.875Z" fill="#8F06A2"/>
<path d="M29.25 13.8125C29.25 14.8899 28.822 15.9233 28.0601 16.6851C27.2983 17.447 26.2649 17.875 25.1875 17.875C23.0262 17.875 21.2875 16.185 21.125 14.0562L29.25 10.5625V13.8125Z" fill="#8F06A2"/>
<path d="M3.25 24.375V27.625H4.875C9.70125 27.625 13.6987 31.1512 14.4788 35.75H24.5212C25.3013 31.1512 29.2987 27.625 34.125 27.625H35.75V24.375H3.25ZM22.0837 32.5H16.9163C16.1572 30.6322 14.9784 28.9641 13.4712 27.625H25.5287C24.0338 28.9575 22.8475 30.615 22.0837 32.5Z" fill="white"/>
</svg>
